HIERARCHY
ROOT Hips
{
	OFFSET 56.877701 -32.693596 43.373703
	CHANNELS 6 Xposition Yposition Zposition Zrotation Xrotation Yrotation
	JOINT Chest
	{
		OFFSET -0.779999 1.005800 5.403099
		CHANNELS 6 Xposition Yposition Zposition Zrotation Xrotation Yrotation
		JOINT Chest2
		{
			OFFSET 0.000000 0.000000 4.236801
			CHANNELS 6 Xposition Yposition Zposition Zrotation Xrotation Yrotation
			JOINT Neck
			{
				OFFSET 0.000000 0.000000 9.874401
				CHANNELS 6 Xposition Yposition Zposition Zrotation Xrotation Yrotation
				JOINT Head
				{
					OFFSET 0.000000 0.000002 2.173893
					CHANNELS 6 Xposition Yposition Zposition Zrotation Xrotation Yrotation
					End Site
					{
						OFFSET 0.000000 0.000000 6.508102
					}
				}
			}
			JOINT LeftCollar
			{
				OFFSET 2.681599 -0.377600 5.432499
				CHANNELS 6 Xposition Yposition Zposition Zrotation Xrotation Yrotation
				JOINT LeftShoulder
				{
					OFFSET 5.161499 0.000000 0.000000
					CHANNELS 6 Xposition Yposition Zposition Zrotation Xrotation Yrotation
					JOINT LeftElbow
					{
						OFFSET 0.000000 0.000000 -10.869099
						CHANNELS 6 Xposition Yposition Zposition Zrotation Xrotation Yrotation
						JOINT LeftWrist
						{
							OFFSET 0.000000 0.000000 -13.344799
							CHANNELS 6 Xposition Yposition Zposition Zrotation Xrotation Yrotation
							End Site
							{
								OFFSET 0.000000 0.000000 -2.173901
							}
						}
					}
				}
			}
			JOINT RightCollar
			{
				OFFSET -2.381901 -1.419600 6.136600
				CHANNELS 6 Xposition Yposition Zposition Zrotation Xrotation Yrotation
				JOINT RightShoulder
				{
					OFFSET -4.550499 0.000000 0.000000
					CHANNELS 6 Xposition Yposition Zposition Zrotation Xrotation Yrotation
					JOINT RightElbow
					{
						OFFSET 0.000000 0.000000 -11.106499
						CHANNELS 6 Xposition Yposition Zposition Zrotation Xrotation Yrotation
						JOINT RightWrist
						{
							OFFSET 0.000000 0.000000 -12.874298
							CHANNELS 6 Xposition Yposition Zposition Zrotation Xrotation Yrotation
							End Site
							{
								OFFSET 0.000000 0.000000 -2.173901
							}
						}
					}
				}
			}
		}
	}
	JOINT LeftHip
	{
		OFFSET 2.431900 0.469601 -2.489399
		CHANNELS 6 Xposition Yposition Zposition Zrotation Xrotation Yrotation
		JOINT LeftKnee
		{
			OFFSET 0.000000 -0.000004 -18.200201
			CHANNELS 6 Xposition Yposition Zposition Zrotation Xrotation Yrotation
			JOINT LeftAnkle
			{
				OFFSET 0.000000 0.000000 -16.279900
				CHANNELS 6 Xposition Yposition Zposition Zrotation Xrotation Yrotation
				End Site
				{
					OFFSET 0.000000 -8.394100 0.000000
				}
			}
		}
	}
	JOINT RightHip
	{
		OFFSET -1.987999 -0.073502 -2.713001
		CHANNELS 6 Xposition Yposition Zposition Zrotation Xrotation Yrotation
		JOINT RightKnee
		{
			OFFSET 0.000000 -0.000004 -19.547802
			CHANNELS 6 Xposition Yposition Zposition Zrotation Xrotation Yrotation
			JOINT RightAnkle
			{
				OFFSET 0.000000 0.000000 -14.881199
				CHANNELS 6 Xposition Yposition Zposition Zrotation Xrotation Yrotation
				End Site
				{
					OFFSET 0.000000 -7.922699 0.000000
				}
			}
		}
	}
}
MOTION
Frames: 4
Frame Time: 0.041667
-19.377098 -54.363297 44.922298 4680.999879 6.523939 0.431734 -0.779999 1.005803 5.403089 -0.917797 -10.254570 -0.340447 -0.000001 -0.000007 4.236798 -1.366972 2.072398 -0.067315 0.000004 -0.000003 9.874407 0.838435 17.388724 3.305904 0.000004 0.000004 2.173895 -0.093078 3.707229 0.502677 2.681599 -0.377601 5.432501 0.709414 -3.125567 -30.513976 5.161496 0.000005 0.000008 121.955855 -145.839838 49.854999 -0.000013 -0.000005 -10.869104 -335.691257 -34.504272 -319.391913 0.000008 0.000002 -13.344799 -99.194346 -12.533423 -26.103427 -2.381904 -1.419605 6.136599 0.176443 -8.841227 38.041551 -4.550512 0.000002 -0.000002 -1209.356791 -520.804110 -408.609455 0.000002 -0.000005 -11.106488 694.905249 -59.995542 685.599964 -0.000003 -0.000006 -12.874299 -314.061660 3.945195 -36.509345 2.431898 0.469603 -2.489398 -347.601468 -13.350530 0.257343 0.000006 0.000001 -18.200195 371.171877 29.029366 0.879973 -0.000002 -0.000001 -16.279896 -11.853902 31.902892 -19.246367 -1.988009 -0.073501 -2.713001 -9.193688 -11.918036 -0.236918 -0.000001 -0.000001 -19.547798 -1457.874044 27.760279 -358.021714 -0.000004 -0.000002 -14.881197 1989.809395 147.650481 -516.280230
-19.395004 -54.350494 44.908001 4681.104790 7.066902 0.757585 -0.779999 1.005801 5.403091 -1.097765 -10.559040 -0.733495 0.000002 -0.000001 4.236803 -1.359352 1.889758 -0.085231 0.000000 0.000003 9.874389 1.218093 15.505989 3.121739 0.000009 0.000004 2.173892 -0.439279 3.618389 0.644108 2.681593 -0.377601 5.432496 0.719421 -2.967682 -29.398152 5.161505 -0.000014 -0.000006 122.049839 -145.421640 48.479873 0.000010 0.000001 -10.869104 -334.057012 -32.704705 -319.065348 0.000006 0.000000 -13.344790 -102.090544 -11.644055 -27.950905 -2.381905 -1.419597 6.136591 -0.329687 -9.597673 37.480441 -4.550513 -0.000010 0.000009 -1209.988010 -520.260536 -408.726416 0.000002 -0.000004 -11.106484 694.288019 -59.993288 685.268016 -0.000007 -0.000006 -12.874302 -312.705403 5.557777 -36.087947 2.431900 0.469601 -2.489399 -346.858644 -14.573054 0.418162 0.000005 -0.000001 -18.200203 369.723440 30.095989 0.635444 0.000003 0.000005 -16.279892 -11.040307 31.425799 -18.958355 -1.988002 -0.073498 -2.713001 -9.332887 -13.021609 -0.942416 -0.000003 0.000002 -19.547804 -1458.498159 28.723824 -357.094748 -0.000001 -0.000000 -14.881195 1989.545805 147.990132 -515.574097
-19.399010 -54.336998 44.887005 4681.176917 7.765457 0.764530 -0.779999 1.005798 5.403104 -1.176420 -11.162002 -0.891081 0.000006 0.000001 4.236798 -1.408267 1.769043 -0.024705 -0.000005 -0.000004 9.874409 1.633003 13.872536 3.042756 0.000006 0.000001 2.173903 -0.611979 3.361935 0.742007 2.681593 -0.377597 5.432503 0.358540 -2.441346 -28.329994 5.161506 -0.000006 0.000002 122.601281 -144.713472 47.210363 -0.000001 0.000003 -10.869108 -333.906966 -32.064914 -319.708478 -0.000001 -0.000001 -13.344804 -103.200750 -10.659408 -30.157013 -2.381911 -1.419597 6.136603 -0.591667 -10.015475 36.299139 -4.550513 0.000002 0.000013 -1210.411482 -519.899520 -408.139456 0.000008 -0.000011 -11.106490 692.605060 -59.306615 683.748600 0.000004 -0.000008 -12.874300 -312.011292 8.742388 -38.116769 2.431899 0.469601 -2.489396 -345.868704 -15.941286 1.030308 -0.000001 0.000000 -18.200207 367.886365 31.298392 0.474040 -0.000002 0.000003 -16.279892 -10.144981 30.934429 -18.717245 -1.988004 -0.073499 -2.712992 -12.727383 -14.545325 -2.201753 -0.000007 0.000002 -19.547802 -1455.740730 30.114144 -356.033883 -0.000006 -0.000003 -14.881200 1989.039387 148.497574 -514.883538
-19.405106 -54.318596 44.862705 4681.200085 8.459386 0.568674 -0.780003 1.005801 5.403096 -1.178490 -11.703072 -0.711918 0.000003 -0.000003 4.236804 -1.533221 1.628788 -0.097203 0.000003 -0.000002 9.874393 2.918633 12.426840 2.258185 0.000001 0.000001 2.173894 -1.601902 3.102998 1.282208 2.681607 -0.377601 5.432499 -0.065877 -1.888582 -27.042628 5.161508 0.000001 0.000004 123.386234 -144.164530 46.035953 0.000003 -0.000001 -10.869110 -328.153679 -27.230557 -317.814439 0.000006 -0.000001 -13.344801 -110.481916 -9.530955 -32.052374 -2.381901 -1.419601 6.136600 -0.657438 -10.041911 35.518141 -4.550514 0.000000 0.000005 -1210.931013 -518.871002 -407.424664 0.000002 -0.000015 -11.106491 690.742167 -58.371985 681.910295 -0.000003 0.000004 -12.874287 -311.623884 10.925653 -38.347892 2.431897 0.469597 -2.489395 -344.803112 -17.265053 1.921976 0.000010 -0.000010 -18.200209 365.781328 32.579531 0.409683 -0.000000 0.000005 -16.279894 -8.609569 30.507323 -19.319135 -1.988006 -0.073504 -2.713001 -14.367559 -16.082541 -3.004488 -0.000004 0.000001 -19.547792 -1454.607356 31.544009 -354.854719 -0.000009 0.000006 -14.881196 1988.486852 149.236273 -514.636340
